<svg xmlns="http://www.w3.org/2000/svg" width="43" height="43"><defs><filter filterUnits="userSpaceOnUse" id="a" x="0" y="0" width="43" height="43"><feOffset in="SourceAlpha" dy="1"/><feGaussianBlur result="blurOut" stdDeviation="1.414"/><feFlood flood-color="#000" result="floodOut"/><feComposite operator="atop" in="floodOut" in2="blurOut"/><feComponentTransfer><feFuncA type="linear" slope=".16"/></feComponentTransfer><feMerge><feMergeNode/><feMergeNode in="SourceGraphic"/></feMerge></filter></defs><g filter="url(#a)"><path fill-rule="evenodd" opacity=".6" fill="#FFF" d="M21 0c11.046 0 20 8.954 20 20s-8.954 20-20 20S1 31.046 1 20 9.954 0 21 0z"/></g><path fill-rule="evenodd" fill="#F77B91" d="M15.441 21.05a1.481 1.481 0 0 1-.444-1.06c0-.4.158-.777.444-1.059l6.843-6.641a1.023 1.023 0 0 1 1.431 0 .99.99 0 0 1 0 1.413l-6.487 6.287 6.487 6.287a.99.99 0 0 1 0 1.413 1.02 1.02 0 0 1-1.431 0l-6.843-6.64z"/></svg>